<svg xmlns="http://www.w3.org/2000/svg" style="display: none;">
  <!-- Navigation Icons -->
  <symbol id="icon-back" viewBox="0 0 24 24">
    <path d="M20 11H7.83l5.59-5.59L12 4l-8 8 8 8 1.42-1.41L7.83 13H20v-2z"/>
  </symbol>
  
  <symbol id="icon-forward" viewBox="0 0 24 24">
    <path d="M12 4l-1.41 1.41L16.17 11H4v2h12.17l-5.58 5.59L12 20l8-8z"/>
  </symbol>
  
  <symbol id="icon-refresh" viewBox="0 0 24 24">
    <path d="M17.65 6.35C16.2 4.9 14.21 4 12 4c-4.42 0-7.99 3.58-7.99 8s3.57 8 7.99 8c3.73 0 6.84-2.55 7.73-6h-2.08c-.82 2.33-3.04 4-5.65 4-3.31 0-6-2.69-6-6s2.69-6 6-6c1.66 0 3.14.69 4.22 1.78L13 11h7V4l-2.35 2.35z"/>
  </symbol>
  
  <symbol id="icon-home" viewBox="0 0 24 24">
    <path d="M10 20v-6h4v6h5v-8h3L12 3 2 12h3v8z"/>
  </symbol>
  
  <!-- Tab Icons -->
  <symbol id="icon-add" viewBox="0 0 24 24">
    <path d="M19 13h-6v6h-2v-6H5v-2h6V5h2v6h6v2z"/>
  </symbol>
  
  <symbol id="icon-close" viewBox="0 0 24 24">
    <path d="M19 6.41L17.59 5 12 10.59 6.41 5 5 6.41 10.59 12 5 17.59 6.41 19 12 13.41 17.59 19 19 17.59 13.41 12z"/>
  </symbol>
  
  <!-- Security Icons -->
  <symbol id="icon-secure" viewBox="0 0 24 24">
    <path d="M18 8h-1V6c0-2.76-2.24-5-5-5S7 3.24 7 6v2H6c-1.1 0-2 .9-2 2v10c0 1.1.9 2 2 2h12c1.1 0 2-.9 2-2V10c0-1.1-.9-2-2-2zm-6 9c-1.1 0-2-.9-2-2s.9-2 2-2 2 .9 2 2-.9 2-2 2zm3.1-9H8.9V6c0-1.71 1.39-3.1 3.1-3.1 1.71 0 3.1 1.39 3.1 3.1v2z"/>
  </symbol>
  
  <symbol id="icon-bookmark" viewBox="0 0 24 24">
    <path d="M17 3H7c-1.1 0-1.99.9-1.99 2L5 21l7-3 7 3V5c0-1.1-.9-2-2-2z"/>
  </symbol>
  
  <!-- Menu Icons -->
  <symbol id="icon-settings" viewBox="0 0 24 24">
    <path d="M12 10c-1.1 0-2 .9-2 2s.9 2 2 2 2-.9 2-2-.9-2-2-2zm7-7H5c-1.11 0-2 .9-2 2v14c0 1.1.89 2 2 2h14c1.11 0 2-.9 2-2V5c0-1.1-.89-2-2-2zm-1.75 9c0 .23-.02.46-.05.68l1.48 1.16c.13.11.17.3.08.45l-1.4 2.42c-.09.15-.27.21-.43.15l-1.74-.7c-.36.28-.76.51-1.18.69l-.26 1.85c-.03.17-.18.3-.35.3h-2.8c-.17 0-.32-.13-.35-.29l-.26-1.85c-.43-.18-.82-.41-1.18-.69l-1.74.7c-.16.06-.34 0-.43-.15l-1.4-2.42c-.09-.15-.05-.34.08-.45l1.48-1.16c-.03-.23-.05-.46-.05-.69 0-.23.02-.46.05-.68l-1.48-1.16c-.13-.11-.17-.3-.08-.45l1.4-2.42c.09-.15.27-.21.43-.15l1.74.7c.36-.28.76-.51 1.18-.69l.26-1.85c.03-.17.18-.3.35-.3h2.8c.17 0 .32.13.35.29l.26 1.85c.43.18.82.41 1.18.69l1.74-.7c.16-.06.34 0 .43.15l1.4 2.42c.09.15.05.34-.08.45l-1.48 1.16c.03.23.05.46.05.69z"/>
  </symbol>
  
  <symbol id="icon-menu" viewBox="0 0 24 24">
    <path d="M3 18h18v-2H3v2zm0-5h18v-2H3v2zm0-7v2h18V6H3z"/>
  </symbol>
  
  <symbol id="icon-extensions" viewBox="0 0 24 24">
    <path d="M20.5 11H19V7c0-1.1-.9-2-2-2h-4V3.5C13 2.12 11.88 1 10.5 1S8 2.12 8 3.5V5H4c-1.1 0-1.99.9-1.99 2v3.8H3.5c1.49 0 2.7 1.21 2.7 2.7s-1.21 2.7-2.7 2.7H2V20c0 1.1.9 2 2 2h3.8v-1.5c0-1.49 1.21-2.7 2.7-2.7 1.49 0 2.7 1.21 2.7 2.7V22H17c1.1 0 2-.9 2-2v-4h1.5c1.38 0 2.5-1.12 2.5-2.5S21.88 11 20.5 11z"/>
  </symbol>
  
  <!-- Arrow Icons -->
  <symbol id="icon-chevron-down" viewBox="0 0 24 24">
    <path d="M7.41 8.59L12 13.17l4.59-4.58L18 10l-6 6-6-6 1.41-1.41z"/>
  </symbol>
  
  <!-- Status Icons -->
  <symbol id="icon-shield" viewBox="0 0 24 24">
    <path d="M12 1L3 5v6c0 5.55 3.84 10.74 9 12 5.16-1.26 9-6.45 9-12V5l-9-4z"/>
  </symbol>
  
  <symbol id="icon-check" viewBox="0 0 24 24">
    <path d="M12 2C6.48 2 2 6.48 2 12s4.48 10 10 10 10-4.48 10-10S17.52 2 12 2zm-2 15l-5-5 1.41-1.41L10 14.17l7.59-7.59L19 8l-9 9z"/>
  </symbol>
</svg>
